<?xml version="1.0" encoding="UTF-8" standalone="no"?>
<!DOCTYPE svg PUBLIC "-//W3C//DTD SVG 1.1//EN" "http://www.w3.org/Graphics/SVG/1.1/DTD/svg11.dtd">
<svg width="100%" height="100%" viewBox="0 0 32 32" version="1.1" xmlns="http://www.w3.org/2000/svg" xmlns:xlink="http://www.w3.org/1999/xlink" xml:space="preserve" xmlns:serif="http://www.serif.com/" style="fill-rule:evenodd;clip-rule:evenodd;stroke-linejoin:round;stroke-miterlimit:2;">
    <g transform="matrix(1,0,0,1,0.1,0.4)">
        <path d="M15.9,0C7.1,0 0,7 0,15.6C0,24.2 7.1,31.2 15.9,31.2C24.7,31.2 31.8,24.2 31.8,15.6C31.8,7 24.7,0 15.9,0ZM12.6,22.1C9,22.1 6,19.2 6,15.6C6,12 9,9.1 12.6,9.1C16.2,9.1 19.2,12 19.2,15.6C19.2,19.2 16.2,22.1 12.6,22.1ZM24.4,17.9L21.3,17.9L21.3,13.3L24.4,13.3C25.7,13.3 26.8,14.3 26.8,15.6C26.8,16.9 25.7,17.9 24.4,17.9Z" style="fill:rgb(255,239,0);fill-rule:nonzero;"/>
    </g>
</svg>
