<?xml version="1.0" standalone="no"?>
<!DOCTYPE svg PUBLIC "-//W3C//DTD SVG 20010904//EN"
 "http://www.w3.org/TR/2001/REC-SVG-20010904/DTD/svg10.dtd">
<svg version="1.0" xmlns="http://www.w3.org/2000/svg"
 width="700.000000pt" height="700.000000pt" viewBox="0 0 700.000000 700.000000"
 preserveAspectRatio="xMidYMid meet">
<metadata>
Created by potrace 1.14, written by Peter Selinger 2001-2017
</metadata>
<g transform="translate(0.000000,700.000000) scale(0.100000,-0.100000)"
fill="#000000" stroke="none">
<path d="M2099 6076 c-2 -2 -43 -6 -90 -10 -492 -37 -821 -226 -972 -556 -34
-74 -60 -204 -60 -295 -1 -209 116 -404 326 -545 74 -49 74 -42 -8 -76 -16 -6
-66 -26 -110 -44 -119 -48 -329 -155 -420 -214 -237 -155 -352 -309 -362 -486
-7 -106 11 -183 70 -300 23 -47 43 -88 45 -91 1 -3 -23 -25 -55 -49 -80 -60
-221 -203 -270 -275 -76 -112 -144 -266 -167 -380 -4 -16 -9 -41 -12 -55 -3
-14 -7 -86 -9 -160 -5 -243 38 -394 161 -560 54 -73 47 -65 134 -155 62 -64
251 -214 315 -249 17 -9 53 -30 80 -47 217 -130 554 -267 880 -360 135 -38
397 -101 480 -114 22 -4 45 -8 50 -9 35 -8 75 -16 110 -21 22 -3 67 -10 100
-15 249 -39 466 -61 765 -77 255 -14 870 -7 1065 11 17 2 66 6 110 10 154 14
171 16 250 26 44 6 94 12 110 15 17 2 53 7 80 11 28 3 57 8 67 9 9 2 38 7 65
11 26 3 57 8 68 10 11 2 58 11 105 20 291 54 740 178 905 249 17 7 66 27 110
45 157 63 356 167 485 253 235 158 393 335 463 521 28 74 30 91 30 201 0 98
-4 130 -21 174 -90 231 -316 409 -728 574 -60 24 -126 50 -147 57 l-39 12 107
107 c305 304 447 607 432 921 -12 244 -102 435 -294 626 -97 97 -253 209 -382
273 -63 32 -196 87 -323 133 -21 8 -25 15 -22 34 10 55 11 85 3 134 -38 239
-293 364 -909 445 -49 6 -452 52 -540 61 -30 3 -68 7 -85 9 -16 2 -57 7 -90
10 -33 3 -71 7 -85 10 -14 2 -52 7 -85 10 -51 5 -166 20 -315 40 -20 3 -47 7
-60 10 -14 3 -72 12 -130 20 -118 18 -154 23 -190 30 -14 2 -43 7 -65 9 -92
11 -151 19 -167 21 -9 2 -57 7 -105 10 -48 4 -101 9 -118 12 -35 5 -531 13
-536 9z"/>
</g>
</svg>
